# xmcd
#
# Track frame offsets: 
#        150
#        1150
#        12288
#        15025
#        28150
#        29200
#        43600
#        45063
#        50125
#        50688
#        63075
#        64300
#        68113
#        68663
#        70700
#        81213
#        81875
#        91925
#        92938
#        107563
#        108288
#        122838
#        124575
#        140000
#        140575
#        157800
#        158613
#        163038
#        163713
#        175388
#        176225
#        192963
#        203788
#
# Disc length: 2929 seconds
#
# Revision: 0
# Processed by: cddbd v1.5.2PL0 Copyright (c) Steve Scherf et al.
# Submitted via: ExactAudioCopy v1.0b3
#
DISCID=bd0b6f21
DTITLE=Tomas Blank - Waxone
DYEAR=1988
DGENRE=Electronic
TTITLE0=It's Enough
TTITLE1=Vicinity
TTITLE2=Longing
TTITLE3=Wonderful
TTITLE4=Restless
TTITLE5=Classic Voice
TTITLE6=Victory
TTITLE7=Errand-Boy
TTITLE8=What
TTITLE9=Winter
TTITLE10=Unrest
TTITLE11=Have A Good Time
TTITLE12=Unexpected
TTITLE13=Career
TTITLE14=You
TTITLE15=Tipsy
TTITLE16=Unity
TTITLE17=Workshop
TTITLE18=Touch
TTITLE19=Wizard
TTITLE20=Come To Me
TTITLE21=A New Year
TTITLE22=Feel It
TTITLE23=Forward
TTITLE24=China Boy
TTITLE25=That's It
TTITLE26=Violent Man
TTITLE27=Curious
TTITLE28=The Boss
TTITLE29=That's Cool
TTITLE30=Warning
TTITLE31=Running For Love
TTITLE32=Agent Notice
EXTD=
EXTT0=
EXTT1=
EXTT2=
EXTT3=
EXTT4=
EXTT5=
EXTT6=
EXTT7=
EXTT8=
EXTT9=
EXTT10=
EXTT11=
EXTT12=
EXTT13=
EXTT14=
EXTT15=
EXTT16=
EXTT17=
EXTT18=
EXTT19=
EXTT20=
EXTT21=
EXTT22=
EXTT23=
EXTT24=
EXTT25=
EXTT26=
EXTT27=
EXTT28=
EXTT29=
EXTT30=
EXTT31=
EXTT32=
PLAYORDER=
